<?xml version="1.0" encoding="UTF-8"?><svg id="Layer_2" xmlns="http://www.w3.org/2000/svg" viewBox="0 0 316.95 128.51"><defs><style>.cls-1{fill:none;stroke:#000;stroke-miterlimit:10;}</style></defs><g id="Layer_1-2"><path class="cls-1" d="M122.25,62.74c0-1.63-.85-2.91-2.55-3.82s-4.03-1.37-6.99-1.37c-4.15,0-8.65,1.31-13.5,3.92s-9.4,6.04-13.65,10.29-7.72,8.84-10.39,13.75c-2.13,3.91-3.42,7.54-3.85,10.88-5.56,4.35-9.69,7.41-12.4,9.19-2.92,1.92-5.3,2.88-7.13,2.88-2.2,0-3.3-1.35-3.3-4.06,0-4.85,5.54-13.45,16.62-25.79,2.71-2.83,4.06-4.94,4.06-6.33,0-2.83-.49-5.63-1.46-8.4-.98-2.77-1.97-4.16-2.98-4.16-2.2,0-4.97,1.17-8.31,3.5-5.98,3.96-11.32,8.09-16.01,12.37-4.69,4.28-8.75,8.39-12.18,12.33-3.44,3.93-6.24,7.11-8.41,9.54-2.17,2.42-3.64,3.63-4.39,3.63-1.2,0-1.8-.91-1.8-2.74,0-3.27,4.98-10.42,14.93-21.44,1.51-1.64,2.5-2.74,2.97-3.3.47-.57.9-1.2,1.28-1.89.37-.7.56-1.36.56-1.99,0-1.44-.61-2.51-1.84-3.21-1.23-.69-2.85-1.04-4.86-1.04-2.9,0-5.92,1.56-9.07,4.68-3.15,3.12-6.9,8.01-11.24,14.69-2.33,3.59-3.89,6.36-4.68,8.31-.78,1.95-1.18,4.66-1.18,8.12,0,5.61.85,10.52,2.55,14.74,1.7,4.21,3.56,6.32,5.58,6.32,1.32,0,2.62-.64,3.92-1.93,1.29-1.29,3.33-3.81,6.14-7.56,2.8-3.74,5.43-7.14,7.88-10.2,2.46-3.05,5.45-6.28,8.98-9.68,5.41-5.42,9.91-9.04,13.5-10.86-2.96,4.97-5.57,9.43-7.84,13.36-2.26,3.94-3.95,6.96-5.05,9.07-1.1,2.11-1.97,4.14-2.6,6.09-.63,1.95-.94,3.94-.94,5.95,0,6.8,2.58,10.2,7.74,10.2,3.03,0,6.93-1.95,11.72-5.85,4.55-3.72,10.97-9.65,19.29-17.81.36,3.34,1.15,6.45,2.38,9.31,1.73,4.03,4.05,7.21,6.94,9.54,2.9,2.33,6.11,3.49,9.64,3.49,6.23,0,13.44-4.85,21.63-14.54,4.72.25,8.34-.26,10.86-1.52,2.32-1.15,5.35-3.39,9.06-6.7.33,3.5,1.13,6.75,2.42,9.73,1.73,4.03,4.04,7.21,6.94,9.54,2.89,2.33,6.11,3.49,9.63,3.49,6.24,0,13.45-4.85,21.63-14.54,4.73.25,8.35-.26,10.87-1.52,2.24-1.12,5.14-3.24,8.7-6.38.11,6.93,1.37,12.78,3.81,17.53,2.55,4.97,6.19,7.46,10.91,7.46,4.09,0,8.17-1.67,12.23-5,4.06-3.34,8.93-8.6,14.6-15.78,2.32.69,4.53,1.04,6.61,1.04,3.73,0,8.79-2.02,15.21-6.05.14,2.95.47,5.4.99,7.37.72,2.77,2.56,5.67,5.52,8.69,5.04,5.04,10.52,7.56,16.44,7.56,4.59,0,10.07-2.03,16.43-6.09s13.57-10.03,21.63-17.9v-6.33c-4.15,3.46-7.79,6.28-10.91,8.45-3.11,2.18-6.17,3.91-9.16,5.2s-5.78,1.93-8.36,1.93c-1.32,0-3.12-.18-5.38-.56,5.66-3.65,10.29-7.23,13.88-10.72,3.59-3.5,6.33-7.15,8.22-10.96,1.89-3.81,2.83-7.79,2.83-11.95,0-2.77-.25-5.26-.75-7.46-.51-2.2-1.22-4.93-2.13-8.17-.91-3.24-1.37-5.46-1.37-6.66,0-1.38.13-2.46.38-3.21l-.57-1.8c-1.51-.75-2.92-1.13-4.25-1.13-5.29,0-8.62,3.87-10.01,11.62-6.11,6.86-17.28,18.86-33.53,35.99v.06c-3.68,2.41-6.93,3.62-9.73,3.62-1.26,0-2.2-.2-2.83-.61-.63-.41-1.48-1.06-2.55-1.94,2.83-5.1,4.99-9.64,6.47-13.6,1.48-3.97,2.22-7.37,2.22-10.2,0-3.72-1.29-5.58-3.88-5.58-1.63,0-4.26,1.47-7.88,4.4-3.62,2.92-6.85,6.4-9.68,10.43-2.84,4.03-4.25,7.78-4.25,11.24,0,1.64.75,4.16,2.26,7.56-3.84,4.16-6.69,6.97-8.55,8.45-1.85,1.48-3.7,2.22-5.52,2.22-4.66,0-6.99-4.34-6.99-13.03,0-3.34.06-5.57.19-6.71,42.31-41.05,63.47-69.83,63.47-86.33,0-3.71-1.35-5.57-4.06-5.57s-8.25,3.37-16.25,10.1c-7.99,6.74-16.26,15.26-24.79,25.55-8.53,10.3-15.82,21.35-21.87,33.16-4.9,9.57-7.81,18.56-8.73,26.96h-.01c-2.21,1.66-3.67,2.74-4.39,3.26-.82.6-1.74,1.17-2.78,1.7-1.04.54-2.1.81-3.17.81h-1.41l-1.7-1.7c2.45-4.03,4.39-8.35,5.81-12.94,1.41-4.6,2.12-8.41,2.12-11.43s-.44-5.21-1.32-6.38c-.88-1.16-2.52-2-4.91-2.5,1.44-1.64,2.17-3.09,2.17-4.35,0-1.63-.85-2.91-2.55-3.82-1.7-.91-4.03-1.37-6.99-1.37-4.16,0-8.66,1.31-13.51,3.92-4.85,2.61-9.4,6.04-13.65,10.29s-7.71,8.84-10.39,13.75c-2.09,3.84-3.36,7.41-3.82,10.71-2.24,1.68-3.72,2.79-4.44,3.31-.82.6-1.75,1.17-2.79,1.7-1.04.54-2.09.81-3.16.81h-1.42l-1.7-1.7c2.46-4.03,4.39-8.35,5.81-12.94,1.42-4.6,2.13-8.41,2.13-11.43s-.45-5.21-1.33-6.38c-.88-1.16-2.52-2-4.91-2.5M120.08,67.09c1.45-1.64,2.17-3.09,2.17-4.35M215.86,63.78c3.46-5.54,9.07-13.79,16.81-24.74,5.6-7.94,10.59-14.19,14.97-18.75,4.38-4.57,7.26-6.85,8.64-6.85.51,0,.76.47.76,1.42,0,1.26-.88,3.58-2.64,6.99-1.77,3.4-4.4,7.66-7.89,12.79-3.5,5.14-8.3,11.54-14.41,19.22-6.36,8-11.19,13.94-14.49,17.81-3.31,3.87-6.6,7.23-9.88,10.06,1.96-6.42,4.66-12.41,8.13-17.95ZM113.38,70.68c-3.22,5.35-5.64,10.09-7.28,14.21-1.64,4.13-2.45,8.17-2.45,12.14,0,2.71.53,5.54,1.6,8.5-6.36,4.66-10.89,6.99-13.6,6.99-5.79,0-8.69-2.08-8.69-6.23,0-.57.79-4.38,2.36-11.43.88-2.65,2.62-5.28,5.2-7.89s5.73-5.19,9.44-7.74c3.72-2.55,8.19-5.4,13.42-8.55M166.65,84.89c-1.64,4.13-2.46,8.17-2.46,12.14,0,2.71.54,5.54,1.61,8.5-6.36,4.66-10.9,6.99-13.6,6.99-5.8,0-8.69-2.08-8.69-6.23,0-.57.78-4.38,2.36-11.43.88-2.65,2.61-5.28,5.19-7.89,2.58-2.61,5.73-5.19,9.45-7.74,3.71-2.55,8.18-5.4,13.41-8.55-3.21,5.35-5.64,10.09-7.27,14.21ZM277.44,106.85c-2.52-3.96-4.47-6.64-5.85-8.03-1.39-1.38-3.97-2.48-7.75-3.3,12.78-12.53,21.13-21,25.03-25.41l1.7,13.79c.06.51.11,1.01.14,1.51.03.51.05,1.07.05,1.7,0,5.29-1.15,9.46-3.45,12.52-2.3,3.05-5.59,5.46-9.87,7.22Z"/></g></svg>